# Blender v2.80 (sub 75) OBJ File: 'hall.blend'
# www.blender.org
mtllib hall.mtl
o Cube_Cube.001
v -0.975289 -0.092362 0.999560
v -0.975289 1.907638 0.999560
v -0.975289 -0.092362 -1.000440
v -0.975289 1.907638 -1.000440
v 1.024711 -0.092362 0.999560
v 1.024711 1.907638 0.999560
v 1.024711 -0.092362 -1.000440
v 1.024711 1.907638 -1.000440
vt 0.375000 0.000000
vt 0.625000 0.000000
vt 0.625000 0.250000
vt 0.375000 0.250000
vt 0.625000 0.500000
vt 0.375000 0.500000
vt 0.625000 0.750000
vt 0.375000 0.750000
vt 0.625000 1.000000
vt 0.375000 1.000000
vt 0.125000 0.500000
vt 0.125000 0.750000
vt 0.875000 0.500000
vt 0.875000 0.750000
vn -1.0000 0.0000 0.0000
vn 0.0000 0.0000 -1.0000
vn 1.0000 0.0000 0.0000
vn 0.0000 0.0000 1.0000
vn 0.0000 -1.0000 0.0000
vn 0.0000 1.0000 0.0000
usemtl Material
s off
f 1/1/1 2/2/1 4/3/1 3/4/1
f 3/4/2 4/3/2 8/5/2 7/6/2
f 7/6/3 8/5/3 6/7/3 5/8/3
f 5/8/4 6/7/4 2/9/4 1/10/4
f 3/11/5 7/6/5 5/8/5 1/12/5
f 8/5/6 4/13/6 2/14/6 6/7/6
o Plane_Plane.001
v -50.000000 0.000000 50.000000
v 50.000000 0.000000 50.000000
v -50.000000 0.000000 -50.000000
v 50.000000 0.000000 -50.000000
vt -14.449159 -14.449159
vt 15.449159 -14.449161
vt 15.449159 15.449161
vt -14.449159 15.449161
vn 0.0000 1.0000 0.0000
usemtl Material.006
s off
f 9/15/7 10/16/7 12/17/7 11/18/7
o Plane.001_Plane.002
v -42.681107 1.612578 1.170933
v -39.834888 0.037281 1.170933
v -42.736809 0.002646 -1.186265
v -42.716820 1.604990 -0.034537
v -41.056190 1.612578 1.170933
v -39.939987 -0.007086 -1.005365
v -41.073845 1.600461 -0.953992
v -39.840118 0.849722 1.170933
v -39.834888 0.037281 -1.266440
v -42.681107 1.612578 -1.266440
v -41.868649 1.612578 1.170933
v -39.993557 -0.008611 1.008730
v -41.056190 1.612578 -1.266440
v -41.075722 1.615774 0.821615
v -41.923889 1.615682 -0.806892
v -39.978485 0.706399 -0.911679
v -39.990208 0.698137 0.853793
v -41.887047 1.617972 0.738027
v -41.868649 1.612578 -1.266440
v -39.840118 0.849722 -1.266440
v -42.627468 0.012187 1.261411
v -39.830036 -0.009141 -0.003011
v -41.571213 0.626874 -0.015322
v -39.867275 0.687005 -0.005958
v -41.938118 1.631138 -0.031599
v -41.597069 0.646600 -0.858440
v -41.620483 0.639796 0.891227
v -42.673794 -0.005367 0.005302
vt 0.750000 0.750000
vt 1.000000 0.750000
vt 0.750000 1.000000
vt 0.250000 0.750000
vt 0.500000 0.750000
vt 0.250000 1.000000
vt 0.437500 0.437500
vt 0.500000 0.437500
vt 0.500000 0.500000
vt 0.687500 0.437500
vt 0.750000 0.500000
vt 0.687500 0.500000
vt 0.500000 0.000000
vt 0.750000 0.000000
vt 0.750000 0.250000
vt 0.500000 0.250000
vt 1.000000 0.000000
vt 0.812500 0.250000
vt 0.000000 0.000000
vt 0.250000 0.000000
vt 0.250000 0.250000
vt 0.000000 0.250000
vt 0.000000 0.750000
vt 0.000000 1.000000
vt 0.187500 0.500000
vt 0.250000 0.500000
vt 0.437500 0.500000
vt 0.500000 1.000000
vt 1.000000 0.500000
vt 1.000000 0.000000
vt 0.250000 0.000000
vt 0.750000 0.000000
vt 0.500000 0.000000
vt 0.187500 0.312500
vt 0.250000 0.312500
vt 0.250000 0.375000
vt 0.437500 0.250000
vt 0.500000 0.312500
vt 0.750000 0.312500
vt 0.812500 0.312500
vt 0.812500 0.375000
vt 0.750000 0.375000
vt 0.812500 0.437500
vt 0.750000 0.437500
vt 0.687500 0.250000
vt 0.687500 0.312500
vt 0.187500 0.375000
vt 0.250000 0.437500
vt 0.000000 0.250000
vt 0.000000 0.000000
vt 0.000000 0.750000
vt 0.187500 0.500000
vt 0.687500 0.375000
vt 0.437500 0.312500
vt 0.500000 0.375000
vt 0.437500 0.375000
vn -0.0276 -0.0002 -0.9996
vn 0.0000 -0.0497 -0.9988
vn 0.1706 0.0051 0.9853
vn 0.0297 0.0835 0.9961
vn 0.5628 0.7648 -0.3135
vn 0.8492 -0.0525 -0.5254
vn -0.0074 1.0000 -0.0011
vn 0.0008 0.9999 0.0109
vn -0.0055 1.0000 0.0024
vn 0.0103 0.9999 0.0126
vn -0.0189 -0.0301 -0.9994
vn 0.5503 0.7756 0.3094
vn 0.9295 0.0040 0.3687
vn 0.0324 0.0002 0.9995
vn 0.0000 0.0564 0.9984
vn 0.0219 0.0350 0.9991
vn -0.0336 0.9992 0.0193
vn 0.1013 -0.1269 -0.9867
vn 0.9877 0.0408 0.1509
vn 0.9916 0.0606 -0.1143
vn -0.0208 -0.0596 -0.9980
vn -0.0335 0.9992 -0.0205
vn -0.9990 -0.0287 0.0336
vn -0.9999 0.0044 0.0113
vn -0.0356 0.9992 -0.0171
vn 0.9526 0.3043 -0.0010
vn -0.0357 0.9990 0.0251
vn 0.9434 0.3317 -0.0059
usemtl Material.001
s off
f 32/19/8 21/20/8 15/21/8
f 31/22/9 25/23/9 15/24/9
f 27/25/10 38/26/10 19/27/10
f 38/28/11 28/29/11 19/30/11
f 17/31/12 20/32/12 29/33/12 26/34/12
f 20/32/13 14/35/13 24/36/13 29/33/13
f 13/37/14 23/38/14 30/39/14 16/40/14
f 23/38/15 17/31/15 26/34/15 30/39/15
f 22/41/9 31/22/9 15/42/9
f 16/43/16 27/44/16 31/22/16 22/41/16
f 27/45/17 19/27/17 25/23/17 31/22/17
f 25/23/18 32/19/18 15/46/18
f 19/30/19 28/29/19 32/19/19 25/23/19
f 28/29/20 18/47/20 21/20/20 32/19/20
f 14/35/21 20/32/21 33/48/21
f 23/38/22 13/37/22 33/49/22
f 20/32/23 17/31/23 33/50/23
f 17/31/22 23/38/22 33/51/22
f 16/52/24 30/53/24 37/54/24
f 30/55/25 26/34/25 39/56/25
f 29/57/26 24/58/26 34/59/26 36/60/26
f 36/60/27 34/59/27 18/61/27 28/62/27
f 26/63/28 29/57/28 39/64/28
f 16/65/29 37/54/29 27/66/29
f 13/37/30 16/40/30 40/67/30 33/68/30
f 16/43/31 22/41/31 15/69/31 40/70/31
usemtl Material.002
f 39/64/32 29/57/32 36/60/32 35/71/32
f 30/72/33 39/56/33 35/73/33 37/74/33
f 35/71/34 36/60/34 28/62/34 38/28/34
f 37/74/35 35/73/35 38/26/35 27/25/35
o Cube.001_Cube.007
v -37.856186 0.642397 3.756178
v -38.180180 1.146104 4.080172
v -37.856186 0.642397 -3.997514
v -38.180180 1.146104 -4.321508
v -30.102491 0.642397 3.756178
v -29.778498 1.146104 4.080172
v -30.102491 0.642397 -3.997514
v -29.778498 1.146104 -4.321508
v -31.219744 0.041550 -2.839190
v -31.219744 0.662393 -2.839190
v -31.219744 0.041550 -3.460033
v -31.219744 0.662393 -3.460033
v -30.598902 0.041550 -2.839190
v -30.598902 0.662393 -2.839190
v -30.598902 0.041550 -3.460033
v -30.598902 0.662393 -3.460033
v -31.219744 0.041550 3.437720
v -31.219744 0.662393 3.437720
v -31.219744 0.041550 2.816877
v -31.219744 0.662393 2.816877
v -30.598902 0.041550 3.437720
v -30.598902 0.662393 3.437720
v -30.598902 0.041550 2.816877
v -30.598902 0.662393 2.816877
v -37.559238 0.041550 3.437720
v -37.559238 0.662393 3.437720
v -37.559238 0.041550 2.816877
v -37.559238 0.662393 2.816877
v -36.938396 0.041550 3.437720
v -36.938396 0.662393 3.437720
v -36.938396 0.041550 2.816877
v -36.938396 0.662393 2.816877
v -37.559238 0.041550 -2.941383
v -37.559238 0.662393 -2.941383
v -37.559238 0.041550 -3.562226
v -37.559238 0.662393 -3.562226
v -36.938396 0.041550 -2.941383
v -36.938396 0.662393 -2.941383
v -36.938396 0.041550 -3.562226
v -36.938396 0.662393 -3.562226
v -38.154968 0.622932 -0.120668
v -38.154968 0.894974 4.054962
v -38.503933 1.167196 -0.120668
v -38.154968 0.894974 -4.296298
v -33.979340 0.622932 -4.296298
v -33.979340 1.167196 -4.645262
v -29.803707 0.894974 -4.296298
v -29.803707 0.622932 -0.120668
v -29.454744 1.167196 -0.120668
v -29.803707 0.894974 4.054962
v -33.979340 0.622932 4.054962
v -33.979340 1.167196 4.403926
v -33.979340 1.230474 -0.120668
v -33.979340 0.564534 -0.120668
v -33.979340 0.894974 4.951314
v -28.907356 0.894974 -0.120668
v -33.979340 0.894974 -5.192650
v -39.051319 0.894974 -0.120668
vt 0.500000 0.125000
vt 0.625000 0.125000
vt 0.625000 0.250000
vt 0.500000 0.250000
vt 0.500000 0.375000
vt 0.625000 0.375000
vt 0.625000 0.500000
vt 0.500000 0.500000
vt 0.500000 0.625000
vt 0.625000 0.625000
vt 0.625000 0.750000
vt 0.500000 0.750000
vt 0.500000 0.875000
vt 0.625000 0.875000
vt 0.625000 1.000000
vt 0.500000 1.000000
vt 0.250000 0.625000
vt 0.375000 0.625000
vt 0.375000 0.750000
vt 0.250000 0.750000
vt 0.750000 0.625000
vt 0.875000 0.625000
vt 0.875000 0.750000
vt 0.750000 0.750000
vt 0.375000 0.000000
vt 0.625000 0.000000
vt 0.625000 0.250000
vt 0.375000 0.250000
vt 0.625000 0.500000
vt 0.375000 0.500000
vt 0.625000 0.750000
vt 0.375000 0.750000
vt 0.625000 1.000000
vt 0.375000 1.000000
vt 0.125000 0.500000
vt 0.125000 0.750000
vt 0.875000 0.500000
vt 0.875000 0.750000
vt 0.375000 0.000000
vt 0.625000 0.000000
vt 0.625000 0.250000
vt 0.375000 0.250000
vt 0.625000 0.500000
vt 0.375000 0.500000
vt 0.625000 0.750000
vt 0.375000 0.750000
vt 0.625000 1.000000
vt 0.375000 1.000000
vt 0.125000 0.500000
vt 0.125000 0.750000
vt 0.875000 0.500000
vt 0.875000 0.750000
vt 0.375000 0.000000
vt 0.625000 0.000000
vt 0.625000 0.250000
vt 0.375000 0.250000
vt 0.625000 0.500000
vt 0.375000 0.500000
vt 0.625000 0.750000
vt 0.375000 0.750000
vt 0.625000 1.000000
vt 0.375000 1.000000
vt 0.125000 0.500000
vt 0.125000 0.750000
vt 0.875000 0.500000
vt 0.875000 0.750000
vt 0.375000 0.000000
vt 0.625000 0.000000
vt 0.625000 0.250000
vt 0.375000 0.250000
vt 0.625000 0.500000
vt 0.375000 0.500000
vt 0.625000 0.750000
vt 0.375000 0.750000
vt 0.625000 1.000000
vt 0.375000 1.000000
vt 0.125000 0.500000
vt 0.125000 0.750000
vt 0.875000 0.500000
vt 0.875000 0.750000
vt 0.750000 0.500000
vt 0.875000 0.500000
vt 0.125000 0.625000
vt 0.125000 0.750000
vt 0.125000 0.500000
vt 0.250000 0.500000
vt 0.375000 0.500000
vt 0.375000 0.875000
vt 0.375000 1.000000
vt 0.375000 0.375000
vt 0.375000 0.250000
vt 0.375000 0.125000
vt 0.375000 0.000000
vt 0.500000 0.000000
vt 0.625000 0.000000
vn -0.7065 0.6999 -0.1047
vn 0.1047 0.6999 -0.7065
vn 0.7065 0.6999 0.1047
vn -0.1047 0.6999 0.7065
vn 0.0100 -0.9999 0.0100
vn -0.0100 0.9999 0.0100
vn -1.0000 0.0000 0.0000
vn 0.0000 0.0000 -1.0000
vn 1.0000 0.0000 0.0000
vn 0.0000 0.0000 1.0000
vn 0.0000 -1.0000 0.0000
vn 0.0000 1.0000 0.0000
vn 0.0100 0.9999 0.0100
vn 0.0100 0.9999 -0.0100
vn -0.0100 0.9999 -0.0100
vn -0.0100 -0.9999 0.0100
vn -0.0100 -0.9999 -0.0100
vn 0.0100 -0.9999 -0.0100
vn -0.0599 -0.9194 0.3886
vn 0.0599 -0.9194 0.3886
vn 0.1047 0.6999 0.7065
vn 0.3886 -0.9194 0.0599
vn 0.3886 -0.9194 -0.0599
vn 0.7065 0.6999 -0.1047
vn 0.0599 -0.9194 -0.3886
vn -0.0599 -0.9194 -0.3886
vn -0.1047 0.6999 -0.7065
vn -0.3886 -0.9194 -0.0599
vn -0.3886 -0.9194 0.0599
vn -0.7065 0.6999 0.1047
usemtl Material.003
s off
f 98/75/36 83/76/36 44/77/36 84/78/36
f 97/79/37 86/80/37 48/81/37 87/82/37
f 96/83/38 89/84/38 46/85/38 90/86/38
f 95/87/39 92/88/39 42/89/39 82/90/39
f 94/91/40 88/92/40 45/93/40 91/94/40
f 93/95/41 83/96/41 42/97/41 92/98/41
f 49/99/42 50/100/42 52/101/42 51/102/42
f 51/102/43 52/101/43 56/103/43 55/104/43
f 55/104/44 56/103/44 54/105/44 53/106/44
f 53/106/45 54/105/45 50/107/45 49/108/45
f 51/109/46 55/104/46 53/106/46 49/110/46
f 56/103/47 52/111/47 50/112/47 54/105/47
f 57/113/42 58/114/42 60/115/42 59/116/42
f 59/116/43 60/115/43 64/117/43 63/118/43
f 63/118/44 64/117/44 62/119/44 61/120/44
f 61/120/45 62/119/45 58/121/45 57/122/45
f 59/123/46 63/118/46 61/120/46 57/124/46
f 64/117/47 60/125/47 58/126/47 62/119/47
f 65/127/42 66/128/42 68/129/42 67/130/42
f 67/130/43 68/129/43 72/131/43 71/132/43
f 71/132/44 72/131/44 70/133/44 69/134/44
f 69/134/45 70/133/45 66/135/45 65/136/45
f 67/137/46 71/132/46 69/134/46 65/138/46
f 72/131/47 68/139/47 66/140/47 70/133/47
f 73/141/42 74/142/42 76/143/42 75/144/42
f 75/144/43 76/143/43 80/145/43 79/146/43
f 79/146/44 80/145/44 78/147/44 77/148/44
f 77/148/45 78/147/45 74/149/45 73/150/45
f 75/151/46 79/146/46 77/148/46 73/152/46
f 80/145/47 76/153/47 74/154/47 78/147/47
f 89/84/48 93/95/48 92/98/48 46/85/48
f 48/81/49 86/155/49 93/95/49 89/84/49
f 86/155/50 44/156/50 83/96/50 93/95/50
f 81/157/51 94/91/51 91/94/51 41/158/51
f 43/159/52 85/160/52 94/91/52 81/157/52
f 85/160/53 47/161/53 88/92/53 94/91/53
f 91/162/54 95/87/54 82/90/54 41/163/54
f 45/93/55 90/86/55 95/87/55 91/162/55
f 90/86/56 46/85/56 92/88/56 95/87/56
f 88/92/57 96/83/57 90/86/57 45/93/57
f 47/161/58 87/82/58 96/83/58 88/92/58
f 87/82/59 48/81/59 89/84/59 96/83/59
f 85/164/60 97/79/60 87/82/60 47/161/60
f 43/165/61 84/78/61 97/79/61 85/164/61
f 84/78/62 44/77/62 86/80/62 97/79/62
f 81/166/63 98/75/63 84/78/63 43/165/63
f 41/167/64 82/168/64 98/75/64 81/166/64
f 82/168/65 42/169/65 83/76/65 98/75/65
