# Blender v2.80 (sub 75) OBJ File: 'player.blend'
# www.blender.org
mtllib player.mtl
o Plane
v 0.068997 1.387416 -0.060323
v -0.057929 1.387660 -0.067786
v 0.062233 1.386004 0.067534
v -0.071926 1.562967 0.075300
v 0.074922 1.563199 0.089019
v -0.063793 1.387268 0.063354
v -0.066779 1.562231 -0.110503
v 0.081366 1.562337 -0.067776
v 0.049955 1.335018 -0.064006
v -0.041604 1.335018 -0.067905
v 0.059521 1.334344 0.035228
v -0.063353 1.334344 0.029996
v 0.052387 1.366421 0.022420
v -0.034888 1.362374 -0.062592
v -0.052395 1.366421 0.023638
v 0.040964 1.362374 -0.057922
v -0.005552 1.563861 0.110663
v -0.106673 1.564624 0.001312
v 0.004857 1.554012 -0.132760
v 0.105461 1.565177 0.010344
v -0.001669 1.633070 -0.002818
v 0.167826 1.292547 -0.117093
v -0.083366 1.307620 -0.132122
v 0.264633 1.266373 0.071836
v -0.179191 1.292547 -0.131869
v 0.269026 1.266373 -0.031326
v 0.069696 1.307620 -0.125605
v 0.155598 1.294306 0.129113
v -0.291364 1.269069 0.048757
v -0.088535 1.253365 0.156805
v -0.191418 1.294306 0.114338
v -0.286971 1.269069 -0.054406
v 0.082665 1.251191 0.164590
v 0.196603 1.146804 -0.123839
v -0.097051 1.156779 -0.137920
v 0.320600 1.146804 0.079650
v -0.210800 1.146804 -0.141186
v 0.325757 1.146804 -0.041464
v 0.082646 1.156779 -0.130269
v 0.184911 1.146804 0.150748
v -0.351090 1.146804 0.051050
v -0.113646 1.144892 0.169512
v -0.222491 1.146804 0.133401
v -0.345933 1.146804 -0.070064
v 0.092633 1.144892 0.178057
v 0.325495 0.919308 -0.044974
v 0.389653 0.971475 0.075291
v -0.335969 0.859250 -0.066227
v 0.390937 0.958077 0.012935
v 0.315775 0.953292 0.114242
v -0.414641 0.955193 0.051428
v -0.346853 0.948816 0.081572
v -0.410591 0.926739 -0.019648
v 0.183824 1.148884 0.013159
v -0.216645 1.145219 -0.003892
v 0.039796 0.909630 -0.081713
v -0.067307 0.909630 -0.086273
v 0.275700 0.926363 0.045682
v -0.314424 0.901460 0.034739
v -0.133162 0.899189 -0.039292
v 0.109659 0.899189 -0.028953
v 0.105262 0.899189 0.074318
v -0.077749 0.895471 0.100819
v -0.137559 0.899189 0.063979
v 0.046837 0.892569 0.106157
v 0.103328 0.900429 0.022506
v -0.135360 0.898245 0.012343
v 0.006942 0.724729 -0.099137
v -0.017976 0.724729 -0.100198
v -0.177723 0.761678 -0.069841
v 0.168122 0.761678 -0.055115
v 0.161859 0.761678 0.091972
v -0.022794 0.719115 0.115201
v -0.183986 0.761678 0.077246
v 0.002124 0.719115 0.116262
v 0.175448 0.763616 0.018873
v -0.197774 0.760201 0.002982
v -0.105179 0.439540 -0.033704
v -0.225400 0.442737 -0.025429
v -0.113144 0.461156 0.114959
v -0.230185 0.458478 0.086948
v -0.227797 0.448936 0.030853
v 0.085090 0.435648 -0.025386
v 0.205973 0.434954 -0.006627
v 0.201188 0.450695 0.105750
v 0.077125 0.457265 0.123278
v 0.196244 0.445019 0.049127
v -0.124374 0.071093 -0.028432
v -0.216339 0.072104 -0.025979
v -0.128621 0.071690 0.041864
v -0.218601 0.072104 0.027159
v -0.217470 0.070818 0.000590
v 0.107569 0.066707 -0.013313
v 0.186020 0.065030 -0.004590
v 0.184107 0.065030 0.040327
v 0.103980 0.067212 0.046107
v 0.180308 0.066457 0.017666
v -0.106149 0.051169 -0.058570
v -0.226376 0.052488 -0.050169
v -0.117435 -0.000662 0.091302
v -0.234474 -0.000123 0.063231
v -0.229912 0.007423 0.005217
v 0.084128 0.047263 -0.050468
v 0.205015 0.044675 -0.031801
v 0.194457 0.001684 0.092690
v 0.075003 0.004654 0.097797
v 0.194138 0.003490 0.023273
v -0.107284 -0.023602 -0.059591
v -0.218816 -0.021371 -0.053186
v -0.115275 -0.022823 0.089695
v -0.230492 -0.021650 0.065997
v -0.223773 -0.020904 0.004192
v 0.082994 -0.027509 -0.051489
v 0.201558 -0.029462 -0.036413
v 0.195160 -0.029073 0.094637
v 0.075003 -0.026729 0.097797
v 0.194138 -0.027894 0.023273
v 0.082994 -0.027509 -0.051489
v 0.075003 -0.026729 0.097797
v 0.101086 0.037161 0.175617
v 0.164769 0.035730 0.176953
v 0.086945 -0.016597 0.178196
v 0.180171 -0.014832 0.181781
v 0.078214 -0.030372 0.184822
v 0.187393 -0.028997 0.190667
v -0.225116 0.044709 0.153985
v -0.154877 0.044394 0.166287
v -0.238800 0.001021 0.156377
v -0.151774 0.000630 0.171619
v -0.256738 -0.022381 0.160275
v -0.141521 -0.023554 0.183973
v -0.409782 0.670876 0.033685
v -0.476378 0.698620 0.119217
v -0.416609 0.718834 0.153484
v -0.473367 0.677467 0.066376
v -0.400888 0.687023 0.103811
v -0.393800 0.596929 0.045140
v -0.513094 0.641155 0.148880
v -0.402386 0.678596 0.212351
v -0.489055 0.616162 0.081807
v -0.408897 0.602987 0.156469
v -0.446719 0.585881 0.146062
v 0.399785 0.730538 0.031517
v 0.452236 0.726590 0.128125
v 0.457113 0.736092 0.069315
v 0.390837 0.738298 0.157094
v 0.359765 0.700203 0.101106
v 0.429322 0.663617 0.055380
v 0.480797 0.672393 0.161887
v 0.480172 0.679865 0.098365
v 0.415971 0.689448 0.210933
v 0.360064 0.620903 0.110192
v 0.432062 0.612069 0.159410
v 0.011279 1.386765 -0.087900
v 0.059077 1.619431 0.004549
v 0.041566 1.619117 0.041199
v 0.051074 1.617880 -0.057459
v -0.000311 1.615850 -0.079316
v -0.046726 1.614704 0.041820
v -0.046710 1.613969 -0.057018
v -0.063089 1.616805 -0.004130
v -0.001217 1.610453 0.058982
v -0.100185 1.387268 0.002558
v -0.004040 1.387268 0.085362
v 0.098395 1.387268 0.002037
v -0.212460 1.309935 0.030120
v -0.203487 1.310944 -0.047376
v 0.193492 1.310608 -0.030627
v 0.190461 1.310557 0.046566
v 0.141614 0.824027 -0.043253
v -0.163926 0.804255 -0.060382
v 0.066336 0.797536 -0.112718
v -0.092225 0.799731 -0.118225
v -0.010732 0.909630 -0.083864
v -0.012438 0.804077 -0.116885
v -0.004918 0.724729 -0.099642
v -0.124423 0.744841 -0.120270
v 0.092708 0.735910 -0.109643
v -0.076852 1.292379 0.133032
v 0.070042 1.291001 0.140449
v -0.005305 1.309126 0.095376
v -0.002244 1.252270 0.153644
v -0.010342 0.893901 0.103707
v -0.000436 1.144892 0.167116
vt 0.000000 0.000000
vt 0.000000 0.000000
vt 0.000000 0.000000
vt 0.000000 0.000000
vt 0.000000 0.000000
vt 0.500000 0.500000
vt 0.750000 0.500000
vt 0.750000 0.627228
vt 0.500000 0.625000
vt 0.500000 0.250000
vt 0.250000 0.250000
vt 0.250000 0.250000
vt 0.500000 0.250000
vt 0.500000 0.250000
vt 0.379566 0.250000
vt 0.250000 0.250000
vt 0.750000 0.750000
vt 0.750000 0.500000
vt 0.750000 0.500000
vt 0.750000 0.750000
vt 0.250000 1.000000
vt 0.337320 1.000000
vt 0.500000 1.000000
vt 0.500000 1.000000
vt 0.250000 1.000000
vt 0.750000 0.750000
vt 0.000000 0.500000
vt 0.000000 0.750000
vt 0.000000 0.750000
vt 0.000000 0.500000
vt 0.500000 1.000000
vt 0.250000 1.000000
vt 0.000000 0.500000
vt 0.000000 0.631772
vt 0.000000 0.750000
vt 0.500000 1.000000
vt 0.750000 1.000000
vt 0.750000 1.000000
vt 0.500000 1.000000
vt 0.250000 0.250000
vt 0.000000 0.250000
vt 0.000000 0.250000
vt 0.250000 0.250000
vt 0.500000 0.250000
vt 0.500000 0.250000
vt 0.750000 0.250000
vt 0.750000 0.250000
vt 0.250000 1.000000
vt 0.250000 1.000000
vt 0.000000 1.000000
vt 0.000000 1.000000
vt 0.750000 1.000000
vt 0.750000 1.000000
vt 0.000000 1.000000
vt 0.000000 1.000000
vt 0.750000 0.250000
vt 0.750000 0.250000
vt 0.000000 0.250000
vt 0.000000 0.250000
vt 0.750000 1.000000
vt 0.750000 0.750000
vt 0.750000 0.750000
vt 0.750000 1.000000
vt 0.750000 0.500000
vt 0.750000 0.250000
vt 0.750000 0.250000
vt 0.750000 0.500000
vt 0.000000 0.750000
vt 0.000000 0.750000
vt 0.000000 0.750000
vt 0.000000 0.750000
vt 0.000000 1.000000
vt 0.000000 1.000000
vt 0.000000 1.000000
vt 0.000000 1.000000
vt 0.000000 0.250000
vt 0.000000 0.500000
vt 0.000000 0.500000
vt 0.000000 0.250000
vt 0.750000 1.000000
vt 0.750000 1.000000
vt 0.750000 0.250000
vt 0.750000 0.250000
vt 0.000000 0.250000
vt 0.000000 0.250000
vt 0.000000 0.500000
vt 0.000000 0.500000
vt 0.000000 0.250000
vt 0.000000 0.250000
vt 0.250000 0.250000
vt 0.500000 0.250000
vt 0.750000 0.250000
vt 0.750000 0.250000
vt 0.750000 0.250000
vt 0.750000 0.250000
vt 0.000000 0.250000
vt 0.250000 0.250000
vt 0.000000 0.250000
vt 0.500000 0.250000
vt 0.000000 0.250000
vt 0.750000 0.250000
vt 0.500000 0.250000
vt 0.250000 0.250000
vt 0.250000 1.000000
vt 0.000000 1.000000
vt 0.000000 1.000000
vt 0.750000 1.000000
vt 0.750000 1.000000
vt 0.500000 1.000000
vt 0.750000 1.000000
vt 0.750000 1.000000
vt 0.500000 1.000000
vt 0.250000 1.000000
vt 0.000000 1.000000
vt 0.000000 1.000000
vt 0.000000 1.000000
vt 0.500000 1.000000
vt 0.750000 1.000000
vt 0.250000 1.000000
vt 0.500000 0.691806
vt 0.750000 0.627239
vt 0.250000 0.750000
vt 0.375000 0.750000
vt 0.375000 0.500000
vt 0.250000 0.500000
vt 0.250000 0.625000
vt 0.330502 0.625000
vt 0.319105 0.680895
vt 0.329078 0.579078
vt 0.435041 0.564959
vt 0.375000 0.569869
vt 0.375000 0.625000
vt 0.319105 0.681028
vt 0.375000 0.683758
vt 0.375347 0.625000
vt 0.435221 0.564959
vt 0.438203 0.625000
vt 0.375000 0.625239
vt 0.434106 0.684232
vt 0.500000 0.750000
vt 0.434289 0.684106
vt 0.750000 1.000000
vt 0.750000 1.000000
vt 0.500000 1.000000
vt 0.750000 0.250000
vt 0.750000 0.250000
vt 0.750000 0.500000
vt 0.750000 0.373683
vt 0.000000 0.250000
vt 0.000000 0.250000
vt 0.250000 0.250000
vt 0.500000 0.250000
vt 0.000000 0.750000
vt 0.000000 0.500000
vt 0.250000 1.000000
vt 0.000000 1.000000
vt 0.750000 0.750000
vt 0.750000 0.750000
vt 0.000000 1.000000
vt 0.250000 1.000000
vt 0.500000 1.000000
vt 0.750000 0.625922
vt 0.750000 0.637133
vt 0.750000 0.750000
vt 0.500000 0.250000
vt 0.250000 0.250000
vt 0.750000 0.500000
vt 0.000000 0.500000
vt 0.000000 0.750000
vt 0.750000 0.635263
vt 0.750000 0.750000
vt 0.750000 0.250000
vt 0.750000 0.500000
vt 0.000000 0.500000
vt 0.000000 0.250000
vt 0.000000 1.000000
vt 0.000000 1.000000
vt 0.750000 1.000000
vt 0.750000 1.000000
vt 0.000000 0.750000
vt 0.000000 0.632058
vt 0.750000 0.250000
vt 0.000000 0.250000
vt 0.750000 0.500000
vt 0.750000 0.750000
vt 0.750000 1.000000
vt 0.750000 0.500000
vt 0.750000 1.000000
vt 0.000000 1.000000
vt 0.000000 0.750000
vt 0.750000 0.250000
vt 0.750000 0.250000
vt 0.000000 0.628313
vt 0.000000 0.500000
vt 0.000000 1.000000
vt 0.000000 1.000000
vt 0.000000 0.250000
vt 0.000000 0.250000
vt 0.000000 0.250000
vt 0.000000 0.336275
vt 0.000000 0.500000
vt 0.000000 0.750000
vt 0.000000 0.885350
vt 0.000000 0.631013
vt 0.000000 0.750000
vt 0.000000 0.500000
vt 0.000000 0.750000
vt 0.000000 0.750000
vt 0.000000 0.750000
vt 0.750000 0.250000
vt 0.750000 0.250000
vt 0.000000 0.750000
vt 0.000000 1.000000
vt 0.000000 1.000000
vt 0.000000 0.250000
vt 0.000000 0.250000
vt 0.000000 0.500000
vt 0.000000 0.500000
vt 0.000000 0.500000
vt 0.000000 0.500000
vt 0.750000 1.000000
vt 0.750000 1.000000
vt 0.000000 0.500000
vt 0.750000 1.000000
vt 0.750000 1.000000
vt 0.000000 1.000000
vt 0.000000 0.750000
vt 0.000000 0.500000
vt 0.000000 0.250000
vt 0.000000 0.000000
vt 0.000000 0.000000
vt 0.000000 0.000000
vt 0.000000 0.000000
vt 0.750000 0.250000
vt 0.750000 0.250000
vt 0.000000 0.750000
vt 0.000000 1.000000
vt 0.000000 0.250000
vt 0.000000 0.500000
vt 0.000000 0.750000
vt 0.000000 0.750000
vt 0.000000 0.750000
vt 0.000000 0.750000
vt 0.000000 0.500000
vt 0.000000 0.500000
vt 0.750000 1.000000
vt 0.750000 0.750000
vt 0.750000 0.750000
vt 0.750000 1.000000
vt 0.750000 0.750000
vt 0.750000 1.000000
vt 0.000000 0.750000
vt 0.750000 0.500000
vt 0.750000 0.250000
vt 0.750000 0.250000
vt 0.750000 0.500000
vt 0.750000 0.250000
vt 0.750000 0.500000
vt 0.000000 0.500000
vn 0.0234 0.9286 -0.3704
vn -0.4110 -0.1070 0.9053
vn -0.9391 0.2757 -0.2053
vn -0.5022 -0.8633 -0.0500
vn -0.0169 0.2871 0.9577
vn 0.5020 -0.8648 -0.0104
vn -0.0107 -0.9332 0.3592
vn 0.0500 0.2057 -0.9773
vn 0.9617 0.2477 -0.1171
vn 0.0462 -0.6109 -0.7904
vn 0.4499 0.1463 0.8810
vn -0.4962 -0.0288 -0.8677
vn -0.9541 0.2863 -0.0881
vn -0.4903 0.1225 0.8629
vn 0.9379 0.3469 0.0076
vn 0.5832 0.0119 -0.8123
vn -0.8577 -0.4614 0.2269
vn -0.8544 -0.4726 -0.2159
vn 0.8507 -0.4365 0.2929
vn 0.9225 -0.3860 0.0050
vn 0.1040 -0.1785 0.9784
vn -0.1976 -0.1645 0.9664
vn -0.9970 -0.0606 -0.0489
vn 0.9779 -0.0548 0.2016
vn -0.0506 -0.0057 -0.9987
vn 0.9937 -0.0292 -0.1080
vn -0.9989 -0.0240 -0.0394
vn 0.1363 -0.0184 -0.9905
vn -0.9989 -0.0242 -0.0411
vn 0.9968 -0.0510 0.0608
vn 0.9236 -0.3818 -0.0341
vn -0.9709 0.1981 -0.1346
vn 0.8410 -0.1290 0.5254
vn -0.4516 0.3568 0.8177
vn -0.5576 -0.1711 -0.8123
vn 0.9976 0.0669 0.0190
vn -0.4179 -0.1780 -0.8909
vn 0.9978 0.0612 0.0266
vn -0.5352 0.6315 0.5610
vn -0.9071 0.2814 -0.3129
vn 0.3864 -0.9166 0.1023
vn -0.3304 -0.4393 0.8354
vn -0.6374 -0.7684 0.0579
vn 0.0493 -0.5964 0.8012
vn -0.2831 -0.9260 -0.2498
vn 0.6232 -0.0396 -0.7811
vn -0.7535 -0.4422 -0.4865
vn -0.8147 -0.1704 0.5543
vn 0.4160 0.3029 0.8574
vn 0.9608 0.2743 0.0400
vn -0.8872 0.0492 0.4588
vn 0.8799 0.4655 0.0952
vn -0.6277 -0.2908 -0.7221
vn 0.4843 0.6993 0.5258
vn 0.6068 -0.0806 -0.7908
vn 0.1930 -0.8772 -0.4397
vn 0.4763 -0.4166 0.7744
vn 0.5574 -0.7380 -0.3804
vn -0.5174 -0.5462 0.6588
vn 0.7769 -0.6243 -0.0811
vn 0.2557 -0.1347 0.9573
vn -0.0158 0.9281 0.3720
vn 0.9337 -0.0506 -0.3546
vn -0.9082 -0.0906 -0.4086
vn -0.2937 -0.2495 -0.9227
vn 0.4476 0.5275 -0.7221
vn -0.2254 0.6833 -0.6944
vn -0.7263 0.6038 0.3284
vn 0.5686 -0.1340 -0.8116
vn -0.2513 0.9593 -0.1292
vn 0.7993 0.5664 -0.2008
vn -0.0420 0.9382 0.3436
vn 0.2055 0.9728 0.1065
vn 0.1720 0.7108 0.6821
vn -0.2970 0.6745 0.6758
vn -0.1447 0.9648 -0.2197
vn 0.6959 0.6511 0.3029
vn -0.2563 0.9571 0.1350
vn -0.7568 0.5918 -0.2774
vn -0.0471 0.9379 0.3436
vn 0.2249 0.9729 -0.0534
vn 0.0544 0.9744 -0.2184
vn -0.8835 -0.0507 0.4657
vn 0.9050 -0.0853 0.4168
vn 0.1518 0.9557 0.2522
vn -0.0717 0.8470 0.5267
vn -0.1740 0.9506 -0.2570
vn -0.1552 0.9877 -0.0177
vn 0.0171 0.9156 -0.4017
vn 0.2207 0.9396 -0.2618
vn 0.1733 0.9849 -0.0024
vn -0.1575 0.9631 0.2181
vn 0.0384 0.8437 0.5355
vn 0.1719 0.9194 -0.3538
vn -0.0058 0.9244 0.3814
vn -0.1488 0.9408 -0.3046
vn 0.9041 0.4257 0.0385
vn -0.1205 0.1176 0.9857
vn -0.5456 0.2470 0.8008
vn -0.5225 0.2525 -0.8144
vn -0.3091 0.1837 0.9331
vn 0.0084 0.0496 -0.9987
vn -0.8982 0.4380 -0.0382
vn 0.0425 0.0345 -0.9985
vn 0.0759 0.0490 -0.9959
vn 0.3072 0.1769 0.9351
vn 0.5900 0.2392 -0.7711
vn 0.4722 0.2442 0.8470
vn -0.0882 -0.2495 0.9644
vn -0.3837 -0.3327 0.8614
vn -0.1880 -0.3281 -0.9257
vn 0.9489 -0.2989 0.1015
vn 0.9522 -0.3046 -0.0205
vn 0.0417 -0.1996 -0.9790
vn 0.2558 -0.3305 -0.9085
vn 0.3596 -0.3472 0.8661
vn -0.9484 -0.3149 -0.0362
vn -0.9480 -0.3152 -0.0446
vn -0.4554 0.8898 -0.0287
vn -0.3943 0.8808 0.2620
vn -0.4065 0.8615 -0.3044
vn 0.3952 0.8552 0.3353
vn 0.4778 0.8207 -0.3133
vn 0.5059 0.8624 0.0211
vn -0.1923 0.6184 0.7620
vn -0.0196 0.9268 0.3749
vn 0.1330 0.6375 0.7589
vn 0.0283 0.1173 0.9927
vn -0.0049 -0.2555 0.9668
vn 0.2279 0.0952 0.9690
vn -0.0413 0.0686 0.9968
vn 0.8994 0.4268 0.0948
vn 0.5780 0.3580 -0.7333
vn -0.3055 0.0753 0.9492
vn -0.9268 0.3672 0.0783
vn 0.0172 0.2867 -0.9579
vn 0.9020 0.4313 -0.0181
vn -0.5776 0.3482 -0.7383
vn -0.9130 0.3770 -0.1559
vn -0.9890 0.1273 0.0757
vn -0.1694 -0.2151 -0.9618
vn -0.2206 0.0701 0.9728
vn -0.9796 0.1008 -0.1740
vn 0.9930 0.0993 0.0633
vn 0.9957 0.0917 0.0100
vn 0.1376 0.0633 0.9885
vn 0.2427 -0.2064 -0.9479
vn 0.0011 -0.9997 -0.0260
vn 0.9511 -0.3052 0.0468
vn -0.9624 -0.2707 -0.0219
vn 0.0297 -0.2077 -0.9777
vn 0.5466 0.2888 -0.7860
vn -0.5755 0.3583 -0.7351
vn 0.0613 0.2881 -0.9556
vn 0.0352 -0.2099 -0.9771
vn 0.1731 -0.0649 -0.9828
vn -0.1087 -0.0959 -0.9894
vn -0.9063 0.3998 0.1368
vn -0.9806 0.1891 -0.0520
vn -0.8363 0.5451 0.0593
vn 0.9037 0.2698 0.3326
vn -0.9667 0.2424 0.0821
vn 0.8977 0.3125 0.3105
vn 0.9845 0.1710 -0.0380
vn 0.0906 0.8442 -0.5283
vn -0.0213 0.8068 -0.5904
vn 0.9341 0.3274 0.1421
vn 0.9999 0.0110 -0.0093
vn 0.1401 0.0331 -0.9896
vn -0.0634 0.0244 -0.9977
vn 0.9978 0.0088 0.0658
vn -0.0040 -0.9998 -0.0196
vn -0.9738 -0.2014 -0.1056
vn -0.9984 0.0112 -0.0559
vn 0.9888 -0.0387 0.1443
vn -0.9841 -0.1270 -0.1243
vn 0.9175 0.2563 0.3041
vn 0.0000 0.0000 1.0000
vn -0.0182 -0.9998 0.0032
vn -0.0151 -0.9999 0.0008
vn -0.0314 0.0704 0.9970
vn -0.0482 0.4868 0.8722
vn 0.9700 0.2033 0.1336
vn -0.9715 0.2052 0.1184
vn 0.9287 0.3112 0.2015
vn 0.0313 0.9750 0.2200
vn -0.1711 0.1072 0.9794
vn -0.1750 0.3434 0.9227
vn -0.9497 0.2719 -0.1555
vn -0.0307 0.9775 0.2088
vn -0.9703 0.2411 -0.0190
vn -0.0081 -0.9999 -0.0100
usemtl Material.001
s off
f 133/1/1 134/2/1 136/3/1 132/4/1 135/5/1
usemtl Material.002
f 4/6/2 6/7/2 164/8/2 17/9/2
f 15/10/3 14/11/3 10/12/3 12/13/3
f 6/14/4 163/15/4 2/16/4 14/11/4 15/10/4
f 13/17/5 15/18/5 12/19/5 11/20/5
f 1/21/6 165/22/6 3/23/6 13/24/6 16/25/6
f 3/26/7 164/8/7 6/7/7 15/18/7 13/17/7
f 14/27/8 16/28/8 9/29/8 10/30/8
f 16/25/9 13/24/9 11/31/9 9/32/9
f 2/33/10 154/34/10 1/35/10 16/28/10 14/27/10
f 36/36/11 40/37/11 50/38/11 47/39/11
f 44/40/12 37/41/12 48/42/12 53/43/12
f 41/44/13 44/40/13 53/43/13 51/45/13
f 43/46/14 41/44/14 51/45/14 52/47/14
f 38/48/15 36/36/15 47/39/15 49/49/15
f 34/50/16 38/48/16 49/49/16 46/51/16
f 50/38/17 40/37/17 54/52/17 58/53/17
f 34/50/18 46/51/18 58/54/18 54/55/18
f 43/46/19 52/47/19 59/56/19 55/57/19
f 48/42/20 37/41/20 55/58/20 59/59/20
f 85/60/21 86/61/21 96/62/21 95/63/21
f 80/64/22 81/65/22 91/66/22 90/67/22
f 86/68/23 83/69/23 93/70/23 96/71/23
f 84/72/24 87/73/24 97/74/24 94/75/24
f 79/76/25 78/77/25 88/78/25 89/79/25
f 87/80/26 85/60/26 95/63/26 97/81/26
f 81/65/27 82/82/27 92/83/27 91/66/27
f 83/69/28 84/72/28 94/75/28 93/70/28
f 82/84/29 79/76/29 89/79/29 92/85/29
f 78/77/30 80/86/30 90/87/30 88/78/30
f 48/42/31 59/59/31 136/88/31 132/89/31
f 51/45/32 53/43/32 135/90/32 133/91/32
f 59/56/33 52/47/33 134/92/33 136/93/33
f 52/47/34 51/45/34 133/91/34 134/92/34
f 53/43/35 48/42/35 132/89/35 135/90/35
f 136/93/36 134/92/36 139/94/36 141/95/36
f 135/90/37 132/89/37 137/96/37 140/97/37
f 132/89/38 136/88/38 141/98/38 137/96/38
f 134/92/39 133/91/39 138/99/39 139/94/39
f 133/91/40 135/90/40 140/97/40 138/99/40
f 137/96/41 141/98/41 142/100/41
f 139/94/42 138/99/42 142/101/42
f 138/99/43 140/97/43 142/102/43
f 141/95/44 139/94/44 142/101/44
f 140/97/45 137/96/45 142/103/45
f 46/51/46 49/49/46 145/104/46 143/105/46
f 58/54/47 46/51/47 143/105/47 147/106/47
f 50/38/48 58/53/48 147/107/48 146/108/48
f 47/39/49 50/38/49 146/108/49 144/109/49
f 49/49/50 47/39/50 144/109/50 145/104/50
f 146/108/51 147/107/51 152/110/51 151/111/51
f 145/104/52 144/109/52 149/112/52 150/113/52
f 147/106/53 143/105/53 148/114/53 152/115/53
f 144/109/54 146/108/54 151/111/54 149/112/54
f 143/105/55 145/104/55 150/113/55 148/114/55
f 152/115/56 148/114/56 153/116/56
f 149/112/57 151/111/57 153/117/57
f 148/114/58 150/113/58 153/116/58
f 151/111/59 152/110/59 153/118/59
f 150/113/60 149/112/60 153/119/60
f 17/9/61 164/8/61 3/26/61 5/120/61
f 181/121/62 11/20/62 12/19/62
usemtl Material.003
f 8/122/63 20/123/63 165/22/63 1/21/63
f 2/16/64 163/15/64 18/124/64 7/125/64
f 2/33/65 7/125/65 19/126/65 154/34/65
f 19/126/66 158/127/66 157/128/66 8/122/66
f 7/125/67 160/129/67 158/127/67 19/126/67
f 18/124/68 4/6/68 159/130/68 161/131/68
f 154/34/69 19/126/69 8/122/69 1/35/69
f 21/132/70 160/129/70 161/131/70
f 8/122/71 157/133/71 155/134/71 20/123/71
f 21/135/72 159/136/72 162/137/72
f 21/138/73 156/139/73 155/134/73
f 5/140/74 156/141/74 162/137/74 17/9/74
f 162/137/75 159/136/75 4/6/75 17/9/75
f 158/127/76 160/129/76 21/132/76
f 155/134/77 156/139/77 5/140/77 20/123/77
f 161/131/78 159/130/78 21/132/78
f 161/131/79 160/129/79 7/125/79 18/124/79
f 162/137/80 156/141/80 21/135/80
f 155/134/81 157/133/81 21/138/81
f 157/128/82 158/127/82 21/132/82
f 18/124/83 163/15/83 6/14/83 4/6/83
f 165/22/84 20/123/84 5/140/84 3/23/84
usemtl Material.004
f 11/142/85 28/143/85 169/144/85
f 12/145/86 31/146/86 30/147/86 179/148/86
f 10/149/87 25/150/87 167/151/87
f 12/13/88 10/12/88 167/151/88 166/152/88
f 10/30/89 9/29/89 27/153/89 23/154/89
f 9/32/90 168/155/90 22/156/90
f 9/32/91 11/31/91 169/144/91 168/155/91
f 12/13/92 166/152/92 31/146/92
f 11/20/93 180/157/93 33/158/93 28/143/93
f 9/159/94 22/156/94 27/153/94
f 11/20/95 181/121/95 180/157/95
f 10/30/96 23/154/96 25/150/96
f 26/160/97 24/161/97 36/36/97 38/48/97
f 33/158/98 182/162/98 184/163/98 45/164/98
f 31/146/99 29/165/99 41/44/99 43/46/99
f 32/166/100 25/150/100 37/41/100 44/40/100
f 30/147/101 31/146/101 43/46/101 42/167/101
f 25/150/102 23/154/102 35/168/102 37/41/102
f 29/165/103 32/166/103 44/40/103 41/44/103
f 23/154/104 27/153/104 39/169/104 35/168/104
f 27/153/105 22/156/105 34/50/105 39/169/105
f 28/143/106 33/158/106 45/164/106 40/37/106
f 22/156/107 26/160/107 38/48/107 34/50/107
f 24/161/108 28/143/108 40/37/108 36/36/108
f 45/164/109 184/163/109 183/170/109 65/171/109
f 42/167/110 43/46/110 64/172/110 63/173/110
f 37/41/111 35/168/111 57/174/111 60/175/111
f 34/50/112 54/55/112 66/176/112 61/177/112
f 54/52/113 40/37/113 62/178/113 66/179/113
f 35/168/114 39/169/114 56/180/114 174/181/114 57/174/114
f 39/169/115 34/50/115 61/177/115 56/180/115
f 40/37/116 45/164/116 65/171/116 62/178/116
f 43/46/117 55/57/117 67/182/117 64/172/117
f 55/58/118 37/41/118 60/175/118 67/183/118
f 166/152/119 167/151/119 32/166/119 29/165/119
f 31/146/120 166/152/120 29/165/120
f 167/151/121 25/150/121 32/166/121
f 169/144/122 28/143/122 24/161/122
f 22/156/123 168/155/123 26/160/123
f 168/155/124 169/144/124 24/161/124 26/160/124
f 180/157/125 181/121/125 182/162/125 33/158/125
f 12/19/126 179/184/126 181/121/126
f 182/162/127 181/121/127 179/184/127 30/147/127
f 184/163/128 182/162/128 30/147/128 42/167/128
f 183/170/129 184/163/129 42/167/129 63/173/129
usemtl Material.005
f 62/178/130 65/171/130 75/185/130 72/186/130
f 65/171/131 183/170/131 63/173/131 73/187/131 75/185/131
f 66/179/132 62/178/132 72/186/132 76/188/132
f 56/180/133 61/177/133 170/189/133 172/190/133
f 63/173/134 64/172/134 74/191/134 73/187/134
f 64/172/135 67/182/135 77/192/135 74/191/135
f 57/174/136 174/181/136 175/193/136 173/194/136
f 61/177/137 66/176/137 76/195/137 71/196/137 170/189/137
f 60/175/138 57/174/138 173/194/138 171/197/138
f 67/183/139 60/175/139 171/197/139 70/198/139 77/199/139
f 74/191/140 77/192/140 82/82/140 81/65/140
f 70/198/141 177/200/141 69/201/141 78/77/141 79/76/141
f 73/187/142 74/191/142 81/65/142 80/64/142
f 77/199/143 70/198/143 79/76/143 82/84/143
f 76/188/144 72/186/144 85/60/144 87/80/144
f 71/196/145 76/195/145 87/73/145 84/72/145
f 72/186/146 75/185/146 86/61/146 85/60/146
f 68/202/147 178/203/147 71/196/147 84/72/147 83/69/147
f 69/201/148 176/204/148 68/202/148 75/205/148 73/206/148
f 69/201/149 73/206/149 80/86/149 78/77/149
f 75/205/150 68/202/150 83/69/150 86/68/150
f 173/194/151 175/193/151 176/204/151 69/201/151
f 172/190/152 170/189/152 71/196/152 178/203/152
f 171/197/153 173/194/153 177/200/153 70/198/153
f 175/193/154 174/181/154 56/180/154 172/190/154
f 176/204/155 175/193/155 172/190/155 68/202/155
f 177/200/156 173/194/156 69/201/156
f 178/203/157 68/202/157 172/190/157
usemtl Material.006
f 96/71/158 106/207/158 122/208/158 120/209/158
f 91/66/159 92/83/159 102/210/159 101/211/159
f 96/71/160 93/70/160 103/212/160 106/207/160
f 94/75/161 97/74/161 107/213/161 104/214/161
f 92/85/162 89/79/162 99/215/162 102/216/162
f 110/217/163 100/218/163 129/219/163 131/220/163
f 97/81/164 95/63/164 105/221/164 107/222/164
f 93/70/165 94/75/165 104/214/165 103/212/165
f 89/79/166 88/78/166 98/223/166 99/215/166
f 88/78/167 90/87/167 100/218/167 98/223/167
f 107/222/168 105/221/168 115/224/168 117/225/168
f 103/212/169 104/214/169 114/226/169 113/227/169
f 99/215/170 98/223/170 108/228/170 109/229/170
f 98/223/171 100/218/171 110/217/171 108/228/171
f 116/230/172 115/231/172 125/232/172 124/233/172
f 101/211/173 102/210/173 112/234/173 111/235/173
f 106/207/174 103/212/174 113/227/174 116/236/174
f 104/214/175 107/213/175 117/237/175 114/226/175
f 102/216/176 99/215/176 109/229/176 112/238/176
f 100/218/177 90/87/177 127/239/177 129/219/177
f 116/236/178 113/227/178 118/240/178 119/241/178
f 119/241/179 118/240/179 114/242/179 115/243/179
f 108/228/180 110/217/180 111/244/180 109/245/180
f 121/246/181 120/247/181 122/248/181 123/249/181
f 123/249/182 122/248/182 124/250/182 125/251/182
f 115/224/183 105/221/183 123/249/183 125/251/183
f 106/207/184 116/236/184 124/252/184 122/208/184
f 105/221/185 95/63/185 121/246/185 123/249/185
f 95/63/186 96/62/186 120/247/186 121/246/186
f 127/253/187 126/254/187 128/255/187 129/256/187
f 129/256/188 128/255/188 130/257/188 131/258/188
f 101/211/189 111/235/189 130/257/189 128/255/189
f 90/67/190 91/66/190 126/254/190 127/253/190
f 91/66/191 101/211/191 128/255/191 126/254/191
f 111/244/192 110/217/192 131/220/192 130/259/192
